<svg xmlns="http://www.w3.org/2000/svg" viewBox="0 0 64 64">
  <defs>
    <linearGradient id="g" x1="0" x2="1" y1="0" y2="1">
      <stop offset="0" stop-color="#5d4fa2"/>
      <stop offset="1" stop-color="#2f2a55"/>
    </linearGradient>
  </defs>
  <rect width="64" height="64" rx="14" fill="url(#g)"/>
  <path d="M32 14c6 8 7 13 0 21-7-8-6-13 0-21zm-15 8c9 4 12 8 11 16-8-1-12-4-16-11 2-2 3-3 5-5zm30 0c2 2 3 3 5 5-4 7-8 10-16 11-1-8 2-12 11-16zM20 42c5 0 8 2 12 8 4-6 7-8 12-8-3 8-8 12-12 12s-9-4-12-12z" fill="#fff"/>
</svg>
